<svg xmlns="http://www.w3.org/2000/svg" viewBox="0 0 508.52 508.52"><path fill="#000000" d="M254.26 0C114.067 0 0 114.067 0 254.26s114.067 254.26 254.26 254.26 254.26-114.067 254.26-254.26S394.452 0 254.26 0zm168.097 117.246c30.257 36.963 48.532 84.033 49.009 135.298-7.183-1.526-78.916-16.082-151.221-6.992l-4.672-11.219a683.718 683.718 0 0 0-14.397-31.465c80.314-32.768 116.705-79.425 121.281-85.622zM254.26 37.408c55.174 0 105.613 20.69 143.943 54.729-3.877 5.562-36.55 49.485-113.781 78.439-35.596-65.377-75.038-119.089-81.045-127.13a216.764 216.764 0 0 1 50.883-6.038zm-92.328 20.627c5.721 7.85 44.527 61.626 80.505 125.604-101.577 26.983-191.044 26.602-200.77 26.475 14.079-67.411 59.497-123.411 120.265-152.079zM37.058 254.578l.095-6.643c9.503.222 114.767 1.557 223.177-30.893a708.736 708.736 0 0 1 17.639 36.868l-8.581 2.574c-111.97 36.2-171.562 134.917-176.52 143.307-34.642-38.488-55.778-89.403-55.81-145.213zm217.17 217.169c-50.185 0-96.46-17.099-133.296-45.83 3.909-7.946 47.896-92.932 170.386-135.616l1.43-.477c30.511 79.202 43.065 145.627 46.339 164.697-26.03 11.092-54.729 17.258-84.859 17.226zm121.377-37.122c-2.225-13.222-13.825-76.786-42.175-154.844 68.046-10.901 127.829 6.96 135.266 9.312-9.725 60.387-44.336 112.606-93.091 145.532z"/></svg>