<?xml version="1.0" encoding="UTF-8"?>
<svg width="67px" height="55px" viewBox="0 0 67 55" version="1.1" xmlns="http://www.w3.org/2000/svg" xmlns:xlink="http://www.w3.org/1999/xlink">
    <!-- Generator: sketchtool 52.2 (67145) - http://www.bohemiancoding.com/sketch -->
    <title>893AA5B1-B1A6-4784-85D2-BF3AA8E50E06</title>
    <desc>Created with sketchtool.</desc>
    <g id="Page-2" stroke="none" stroke-width="1" fill="none" fill-rule="evenodd">
        <g id="Home-Page-Test" transform="translate(-135.000000, -1833.000000)" fill="#FFF337">
            <path d="M164.357527,1859.06209 L164.357527,1888 L135,1888 L135,1869.30719 C135,1862.35726 136.26074,1856.06648 138.782258,1850.43464 C141.303776,1844.8028 145.506243,1838.99132 151.389785,1833 L162.016129,1841.44771 C156.012515,1847.55885 152.350365,1853.43026 151.02957,1859.06209 L164.357527,1859.06209 Z M202,1859.06209 L202,1888 L172.642473,1888 L172.642473,1869.30719 C172.642473,1862.35726 173.903213,1856.06648 176.424731,1850.43464 C178.946249,1844.8028 183.148716,1838.99132 189.032258,1833 L199.658602,1841.44771 C193.654988,1847.55885 189.992838,1853.43026 188.672043,1859.06209 L202,1859.06209 Z" id="“"></path>
        </g>
    </g>
</svg>