<svg xmlns="http://www.w3.org/2000/svg" width="30" height="30"><path fill="#000000" fill-rule="nonzero" d="M15 30C6.716 30 0 23.284 0 15 0 6.716 6.716 0 15 0c8.284 0 15 6.716 15 15 0 8.284-6.716 15-15 15zm.71-13.023c-.149-.288-.256-.48-.347-.679-1.037-2.271-2.081-4.54-3.097-6.82-.162-.363-.352-.484-.742-.476-1.25.025-2.5.007-3.75.012-.153 0-.305.035-.647.079.55.664 1.046 1.19 1.448 1.78.229.335.416.773.428 1.171.047 1.604-.087 3.218.048 4.811.15 1.763-.25 3.227-1.594 4.41-.18.16-.28.413-.457.685h5.078c-.205-.294-.31-.525-.482-.678-1.372-1.217-1.809-2.72-1.62-4.527.13-1.244.025-2.513.025-3.77a.52.52 0 0 1 .279.282c1.267 2.76 2.527 5.525 3.807 8.28.088.189.322.31.487.463.134-.162.317-.304.393-.49.6-1.485 1.18-2.978 1.767-4.468.538-1.366 1.08-2.73 1.62-4.094l.104.02v.468c0 1.813-.06 3.629.023 5.438.047 1.044-.178 1.859-1.05 2.471-.19.134-.31.373-.5.611h6.654c-.266-.291-.404-.506-.597-.643-.833-.591-1.031-1.382-1.001-2.378.067-2.27.074-4.544-.003-6.813-.035-1.028.184-1.822 1.044-2.418.197-.136.325-.372.595-.693-1.523 0-2.85.018-4.176-.01-.406-.01-.582.139-.723.499-.874 2.227-1.768 4.446-2.658 6.667-.097.243-.21.478-.357.81z"/></svg>